<?xml version="1.0" standalone="no"?>
<!DOCTYPE svg PUBLIC "-//W3C//DTD SVG 20010904//EN"
 "http://www.w3.org/TR/2001/REC-SVG-20010904/DTD/svg10.dtd">
<svg version="1.0" xmlns="http://www.w3.org/2000/svg"
 width="510.000000pt" height="489.000000pt" viewBox="0 0 510.000000 489.000000"
 preserveAspectRatio="xMidYMid meet">

<g transform="translate(0.000000,489.000000) scale(0.100000,-0.100000)"
fill="#000000" stroke="none">
<path d="M508 4433 c84 -2 219 -2 300 0 81 1 12 3 -153 3 -165 0 -231 -2 -147
-3z"/>
<path d="M620 4420 l-385 -5 0 -42 c1 -24 2 -110 3 -192 l2 -149 245 -4 c278
-4 294 -8 235 -60 -36 -33 -49 -52 -98 -153 -17 -34 -37 -67 -46 -74 -9 -7
-16 -17 -16 -21 0 -11 -80 -129 -93 -137 -7 -5 -12 -12 -13 -18 -3 -24 -17
-55 -25 -55 -5 0 -16 -18 -25 -40 -9 -22 -19 -40 -23 -40 -3 0 -15 -18 -25
-40 -11 -22 -23 -40 -27 -40 -4 0 -11 -9 -14 -20 -4 -11 -20 -33 -36 -48 -25
-24 -36 -48 -38 -89 -1 -7 -7 -13 -15 -13 -17 0 -26 -22 -26 -61 0 -19 -5 -29
-15 -29 -13 0 -15 -28 -15 -189 0 -187 0 -189 22 -196 13 -5 201 -10 418 -12
295 -3 418 0 485 10 l90 13 2 188 c1 133 -2 189 -10 191 -7 3 -37 6 -67 9 -30
2 -63 7 -73 11 -11 5 -69 4 -130 0 -62 -5 -155 -9 -207 -9 l-95 -1 -3 27 c-2
19 4 34 22 49 14 13 26 33 26 46 0 13 15 40 33 60 34 39 87 118 87 129 0 3 11
19 25 36 14 16 25 35 25 42 0 6 9 19 19 28 11 9 25 35 31 57 6 23 15 40 19 38
8 -2 81 98 81 110 0 12 74 118 90 130 12 8 15 22 12 43 -4 25 0 32 16 37 11 3
26 19 33 36 7 18 23 41 36 52 24 20 24 21 21 210 l-3 190 -85 0 c-47 1 -258
-2 -470 -5z m-72 -1717 c-10 -2 -26 -2 -35 0 -10 3 -2 5 17 5 19 0 27 -2 18
-5z m125 0 c-13 -2 -35 -2 -50 0 -16 2 -5 4 22 4 28 0 40 -2 28 -4z"/>
<path d="M1805 4423 c-10 -3 -51 -22 -90 -43 -75 -40 -178 -146 -173 -178 3
-22 -20 -64 -32 -57 -12 7 -59 -97 -77 -170 -45 -190 -45 -184 -41 -417 2
-124 6 -230 11 -234 4 -4 13 1 21 11 12 16 14 7 15 -70 1 -55 7 -95 15 -107 8
-11 16 -16 18 -11 3 4 3 2 2 -5 -5 -18 17 -62 27 -56 5 3 9 -3 9 -13 0 -10 11
-26 24 -36 13 -10 30 -32 36 -48 7 -16 19 -29 26 -29 8 0 14 -6 14 -14 0 -41
61 -109 130 -144 28 -14 61 -17 170 -17 l135 0 70 51 c45 33 69 57 67 68 -2 9
12 32 30 50 19 19 51 70 73 112 21 42 47 86 58 97 11 11 26 43 33 71 7 28 21
80 30 116 24 89 25 461 1 530 -9 25 -19 63 -23 84 -7 41 -28 88 -38 87 -3 -1
-10 -1 -15 -1 -5 0 -14 21 -20 46 -33 128 -122 245 -202 264 -34 8 -46 16 -42
26 9 25 -58 44 -154 43 -48 -1 -97 -4 -108 -6z m-233 -215 c-7 -7 -12 -8 -12
-2 0 14 12 26 19 19 2 -3 -1 -11 -7 -17z m488 -223 c0 -29 5 -37 25 -45 25 -9
25 -11 25 -129 0 -110 -2 -121 -20 -131 -21 -11 -28 -40 -10 -40 6 0 10 -10
10 -22 0 -19 2 -20 10 -8 7 10 10 -7 10 -56 0 -54 4 -73 15 -78 8 -3 19 3 25
12 7 12 9 -2 7 -53 -2 -60 -5 -70 -19 -69 -13 1 -21 -10 -28 -37 -6 -21 -19
-43 -30 -49 -13 -7 -20 -23 -22 -53 l-3 -42 -134 -3 c-135 -3 -168 5 -157 35
7 18 -14 63 -30 63 -33 0 -44 31 -44 118 0 110 6 132 33 129 17 -2 22 5 28 38
5 22 8 59 8 82 1 38 -2 43 -26 49 -40 10 -44 21 -38 99 9 113 14 135 29 129 8
-3 20 3 27 13 8 11 22 22 32 26 10 4 17 17 17 32 l0 25 130 0 130 0 0 -35z"/>
<path d="M1871 3836 c-7 -9 -11 -38 -9 -73 l3 -58 53 -3 52 -3 0 63 c0 37 -5
69 -12 76 -17 17 -73 15 -87 -2z"/>
<path d="M1861 3511 c-8 -5 -11 -31 -9 -77 3 -64 5 -69 27 -72 13 -2 39 -1 57
3 l34 6 0 65 c0 43 -4 66 -12 68 -32 10 -86 14 -97 7z"/>
<path d="M2737 4423 c-4 -3 -7 -390 -7 -860 l0 -853 38 0 c22 0 86 -3 143 -6
57 -3 110 -1 117 3 9 7 13 113 15 461 1 345 5 454 15 464 18 18 31 0 38 -57 4
-28 15 -60 25 -73 9 -12 20 -44 24 -71 7 -50 30 -74 47 -49 7 10 8 10 7 -2 -5
-31 14 -91 31 -103 17 -12 25 -51 29 -145 1 -7 5 -11 10 -7 12 7 26 -19 35
-63 3 -19 19 -62 36 -97 16 -35 30 -73 30 -85 0 -11 4 -18 10 -15 5 3 15 -7
21 -22 6 -15 20 -46 30 -69 11 -23 19 -46 19 -51 0 -18 57 -23 178 -17 64 4
119 8 121 10 2 2 4 387 5 856 l1 853 -142 1 c-140 1 -143 1 -143 -20 0 -300
-14 -923 -21 -931 -14 -14 -26 10 -40 75 -8 37 -20 62 -40 81 -20 19 -29 37
-29 59 0 17 -9 43 -20 57 -11 14 -23 44 -27 66 -4 27 -12 41 -24 44 -16 4 -19
15 -19 62 0 43 -6 65 -24 91 -12 19 -26 53 -30 75 -7 35 -9 38 -21 22 -6 -9
-14 -17 -17 -17 -3 0 -13 36 -23 81 -9 44 -23 93 -31 107 -8 15 -14 33 -14 41
0 7 -9 29 -21 47 -11 19 -18 38 -15 43 3 5 -8 11 -25 15 -42 8 -284 8 -292 -1z"/>
<path d="M4203 4420 c-17 -7 -23 -18 -23 -42 -1 -18 -8 -64 -16 -103 -8 -38
-22 -108 -30 -155 -20 -118 -23 -132 -33 -126 -4 3 -13 -44 -20 -104 -12 -116
-18 -143 -31 -135 -8 5 -30 -137 -30 -195 0 -19 -5 -42 -10 -50 -8 -12 -10 -9
-10 12 0 23 -20 53 -20 31 -1 -58 -22 -188 -33 -210 -9 -16 -18 -62 -22 -103
-9 -113 -15 -140 -29 -140 -8 0 -16 -31 -23 -92 -6 -51 -19 -124 -27 -163 -9
-38 -16 -85 -16 -102 l0 -33 145 0 c130 0 146 2 151 18 3 9 9 25 14 34 5 9 14
53 19 98 6 45 13 85 16 91 7 10 373 13 399 3 13 -5 16 -24 16 -100 0 -51 5
-105 12 -119 l11 -25 171 2 171 3 -4 40 c-1 22 -7 47 -11 55 -5 9 -16 60 -25
115 -10 55 -23 118 -30 140 -7 22 -20 84 -30 137 -10 59 -24 105 -35 118 -10
11 -21 42 -25 68 -3 26 -13 70 -20 97 -8 28 -21 94 -30 147 -8 53 -21 112 -29
130 -7 18 -21 76 -30 128 -23 143 -62 295 -74 293 -6 -1 -13 32 -17 79 -10
107 -25 151 -56 159 -36 10 -311 9 -336 -1z m193 -505 c7 -19 14 -44 14 -55 0
-11 7 -31 15 -44 8 -12 17 -51 21 -87 3 -35 17 -125 31 -200 14 -76 23 -144
20 -153 -5 -13 -24 -16 -111 -16 -58 0 -107 3 -110 8 -7 12 23 255 35 282 7
14 14 77 16 140 5 145 8 160 34 160 13 0 25 -11 35 -35z"/>
<path d="M4136 2293 c-28 -3 -62 -13 -77 -24 -15 -10 -42 -22 -61 -25 -18 -4
-39 -11 -46 -17 -6 -5 -26 -7 -42 -3 -17 3 -30 1 -30 -4 0 -6 -6 -10 -12 -10
-13 0 -40 -20 -106 -77 -20 -18 -38 -28 -40 -23 -8 22 -66 -66 -83 -123 -10
-34 -18 -55 -18 -47 -1 13 -2 13 -11 0 -12 -18 -13 -33 -2 -26 10 6 3 -74 -9
-100 -6 -11 -9 -42 -6 -70 l3 -49 2 60 c2 43 5 56 12 45 5 -8 10 -11 10 -6 0
5 7 3 15 -4 13 -11 15 -7 15 24 0 20 6 49 14 65 16 30 90 101 106 101 6 0 27
7 48 16 32 14 34 17 18 23 -16 6 -10 13 37 38 31 17 67 33 81 37 14 3 47 21
73 39 l48 32 247 -3 c243 -3 333 2 307 19 -7 4 -33 5 -58 2 -34 -4 -66 2 -121
21 -63 21 -70 26 -40 26 64 0 -1 25 -122 46 -21 3 -38 10 -38 15 0 9 -17 9
-114 2z"/>
<path d="M253 2204 c-15 -40 26 -52 47 -14 8 15 5 19 -16 23 -16 3 -28 -1 -31
-9z"/>
<path d="M1185 2210 c3 -5 8 -10 11 -10 2 0 4 5 4 10 0 6 -5 10 -11 10 -5 0
-7 -4 -4 -10z"/>
<path d="M2327 2213 c-2 -5 0 -21 4 -38 3 -16 7 -23 8 -15 1 8 4 25 7 38 6 20
-10 32 -19 15z"/>
<path d="M4441 2143 l-44 -4 49 -24 c28 -14 67 -25 92 -25 23 0 42 -4 42 -10
0 -5 3 -10 8 -10 4 0 7 15 6 32 -1 30 -4 34 -40 40 -21 4 -46 6 -54 6 -8 -1
-35 -3 -59 -5z"/>
<path d="M2326 1999 c-5 -37 -6 -314 -2 -615 3 -302 5 -622 6 -712 0 -127 3
-163 13 -159 6 2 10 11 8 18 -2 8 -3 338 -3 734 1 396 -2 738 -6 760 l-9 40
-7 -66z"/>
<path d="M1296 928 c-8 -183 3 -476 14 -353 9 98 10 384 2 460 -7 63 -9 52
-16 -107z"/>
<path d="M225 798 c8 -95 15 -100 15 -10 0 39 -5 74 -10 77 -7 4 -8 -18 -5
-67z"/>
<path d="M231 684 c0 -11 3 -14 6 -6 3 7 2 16 -1 19 -3 4 -6 -2 -5 -13z"/>
<path d="M212 620 c0 -14 2 -19 5 -12 2 6 2 18 0 25 -3 6 -5 1 -5 -13z"/>
<path d="M207 544 c-2 -13 -1 -24 4 -24 4 0 14 -3 23 -6 22 -8 20 12 -3 35
-19 19 -19 19 -24 -5z"/>
<path d="M2987 551 c-6 -24 7 -46 22 -37 15 10 14 31 -3 45 -11 9 -15 7 -19
-8z"/>
</g>
</svg>
