<svg width="512" height="192" viewBox="0 0 512 192" fill="none" xmlns="http://www.w3.org/2000/svg">
<rect width="512" height="192" fill="black"/>
<path d="M253.525 36.75H35.2434C28.2209 36.75 22.528 43.0628 22.528 50.85V140.15C22.528 147.937 28.2209 154.25 35.2434 154.25H253.525C260.547 154.25 266.24 147.937 266.24 140.15V50.85C266.24 43.0628 260.547 36.75 253.525 36.75Z" fill="white"/>
<path d="M35.1518 126.5V119.199L64.1859 78.4602H35.095V68.3182H79.6405V75.6193L50.578 116.358H79.6973V126.5H35.1518Z" fill="black"/>
<path d="M118.784 128.4C134.619 128.4 147.456 113.67 147.456 95.5C147.456 77.3298 134.619 62.6 118.784 62.6C102.949 62.6 90.112 77.3298 90.112 95.5C90.112 113.67 102.949 128.4 118.784 128.4Z" fill="black" stroke="white" stroke-width="1.5"/>
<path d="M118.784 111.95C126.702 111.95 133.12 104.585 133.12 95.5C133.12 86.4149 126.702 79.05 118.784 79.05C110.866 79.05 104.448 86.4149 104.448 95.5C104.448 104.585 110.866 111.95 118.784 111.95Z" fill="white"/>
<path d="M118.787 104.309C117.519 104.309 116.399 104.084 115.427 103.635C114.46 103.179 113.706 102.554 113.165 101.76C112.623 100.96 112.355 100.049 112.361 99.0273C112.355 98.2271 112.512 97.4884 112.832 96.8114C113.152 96.1281 113.589 95.5587 114.143 95.1033C114.703 94.6416 115.328 94.3492 116.018 94.2261V94.1153C115.113 93.8814 114.393 93.3736 113.857 92.5919C113.322 91.804 113.057 90.9084 113.063 89.9051C113.057 88.9449 113.3 88.0862 113.792 87.3291C114.285 86.572 114.962 85.9749 115.824 85.5379C116.692 85.1009 117.68 84.8824 118.787 84.8824C119.883 84.8824 120.862 85.1009 121.724 85.5379C122.585 85.9749 123.262 86.572 123.755 87.3291C124.253 88.0862 124.506 88.9449 124.512 89.9051C124.506 90.9084 124.232 91.804 123.69 92.5919C123.155 93.3736 122.444 93.8814 121.557 94.1153V94.2261C122.241 94.3492 122.856 94.6416 123.404 95.1033C123.952 95.5587 124.389 96.1281 124.715 96.8114C125.041 97.4884 125.207 98.2271 125.214 99.0273C125.207 100.049 124.93 100.96 124.383 101.76C123.841 102.554 123.087 103.179 122.121 103.635C121.16 104.084 120.049 104.309 118.787 104.309ZM118.787 102.277C119.643 102.277 120.382 102.139 121.003 101.862C121.625 101.585 122.105 101.194 122.444 100.689C122.782 100.184 122.955 99.5935 122.961 98.9165C122.955 98.2024 122.77 97.5715 122.407 97.0237C122.044 96.4759 121.548 96.045 120.92 95.7311C120.299 95.4172 119.588 95.2602 118.787 95.2602C117.981 95.2602 117.261 95.4172 116.627 95.7311C115.999 96.045 115.504 96.4759 115.14 97.0237C114.783 97.5715 114.608 98.2024 114.614 98.9165C114.608 99.5935 114.771 100.184 115.104 100.689C115.442 101.194 115.925 101.585 116.553 101.862C117.181 102.139 117.926 102.277 118.787 102.277ZM118.787 93.3028C119.465 93.3028 120.065 93.1674 120.588 92.8966C121.117 92.6257 121.533 92.2472 121.834 91.7609C122.136 91.2747 122.29 90.7053 122.296 90.0528C122.29 89.4127 122.139 88.8556 121.844 88.3817C121.548 87.9015 121.139 87.5322 120.616 87.2737C120.092 87.009 119.483 86.8767 118.787 86.8767C118.08 86.8767 117.461 87.009 116.932 87.2737C116.402 87.5322 115.993 87.9015 115.704 88.3817C115.414 88.8556 115.273 89.4127 115.279 90.0528C115.273 90.7053 115.417 91.2747 115.713 91.7609C116.014 92.2472 116.43 92.6257 116.959 92.8966C117.489 93.1674 118.098 93.3028 118.787 93.3028Z" fill="black"/>
<path d="M200.466 67.8182V126H189.841L164.528 89.3807H164.102V126H151.801V67.8182H162.596L187.71 104.409H188.221V67.8182H200.466ZM220.657 126H207.476L227.561 67.8182H243.413L263.47 126H250.288L235.714 81.1136H235.26L220.657 126ZM219.833 103.131H250.97V112.733H219.833V103.131Z" fill="black"/>
<path d="M270.432 127V119.699L299.466 78.9602H270.375V68.8182H314.92V76.1193L285.858 116.858H314.977V127H270.432ZM324.416 127V68.8182H363.621V78.9602H336.717V92.8239H361.604V102.966H336.717V116.858H363.734V127H324.416ZM373.401 127V68.8182H396.355C400.749 68.8182 404.499 69.6042 407.605 71.1761C410.73 72.7292 413.107 74.9356 414.736 77.7955C416.384 80.6364 417.207 83.9792 417.207 87.8239C417.207 91.6875 416.374 95.0114 414.707 97.7955C413.041 100.561 410.626 102.682 407.463 104.159C404.319 105.636 400.512 106.375 396.043 106.375H380.673V96.4886H394.054C396.402 96.4886 398.353 96.1667 399.906 95.5227C401.459 94.8788 402.615 93.9129 403.372 92.625C404.149 91.3371 404.537 89.7367 404.537 87.8239C404.537 85.892 404.149 84.2633 403.372 82.9375C402.615 81.6117 401.45 80.608 399.878 79.9261C398.325 79.2254 396.365 78.875 393.997 78.875H385.702V127H373.401ZM404.821 100.523L419.281 127H405.702L391.554 100.523H404.821Z" fill="#00D4FF"/>
<path d="M476.8 64.95H435.84C431.316 64.95 427.648 69.1585 427.648 74.35V121.35C427.648 126.541 431.316 130.75 435.84 130.75H476.8C481.324 130.75 484.992 126.541 484.992 121.35V74.35C484.992 69.1585 481.324 64.95 476.8 64.95Z" fill="#00D4FF" fill-opacity="0.3" stroke="#00D4FF" stroke-width="2"/>
<g opacity="0.8">
<path d="M439.936 81.4H452.224ZM439.936 95.5H464.512ZM439.936 109.6H448.128Z" fill="black"/>
<path d="M439.936 81.4H452.224M439.936 95.5H464.512M439.936 109.6H448.128" stroke="white" stroke-width="2" stroke-linecap="round"/>
</g>
<path opacity="0.6" d="M470.656 76.7H466.56C465.429 76.7 464.512 77.7521 464.512 79.05V83.75C464.512 85.0479 465.429 86.1 466.56 86.1H470.656C471.787 86.1 472.704 85.0479 472.704 83.75V79.05C472.704 77.7521 471.787 76.7 470.656 76.7Z" fill="white"/>
</svg>
